<svg xmlns="http://www.w3.org/2000/svg" width="800" height="600" viewBox="0 0 800 600">
  <!-- 背景 -->
  <rect width="800" height="600" fill="#ffffff"/>
  
  <!-- 标题 -->
  <text x="400" y="30" font-family="Arial" font-size="22" text-anchor="middle" font-weight="bold" fill="#333">Transformer架构图</text>
  
  <!-- Encoder和Decoder框 -->
  <rect x="150" y="70" width="200" height="450" rx="10" ry="10" fill="#e3f2fd" stroke="#2196f3" stroke-width="2"/>
  <rect x="450" y="70" width="200" height="450" rx="10" ry="10" fill="#f3e5f5" stroke="#9c27b0" stroke-width="2"/>
  
  <text x="250" y="100" font-family="Arial" font-size="20" text-anchor="middle" font-weight="bold" fill="#1565c0">编码器 Encoder</text>
  <text x="550" y="100" font-family="Arial" font-size="20" text-anchor="middle" font-weight="bold" fill="#6a1b9a">解码器 Decoder</text>
  
  <!-- Encoder堆叠层 -->
  <g>
    <rect x="170" y="130" width="160" height="60" rx="5" ry="5" fill="#bbdefb" stroke="#1e88e5" stroke-width="1"/>
    <text x="250" y="165" font-family="Arial" font-size="14" text-anchor="middle" fill="#333">多头自注意力层</text>
    
    <rect x="170" y="200" width="160" height="60" rx="5" ry="5" fill="#bbdefb" stroke="#1e88e5" stroke-width="1"/>
    <text x="250" y="235" font-family="Arial" font-size="14" text-anchor="middle" fill="#333">前馈神经网络</text>
    
    <!-- 中间的省略号表示多层堆叠 -->
    <text x="250" y="290" font-family="Arial" font-size="24" text-anchor="middle" fill="#333">...</text>
    
    <rect x="170" y="320" width="160" height="60" rx="5" ry="5" fill="#bbdefb" stroke="#1e88e5" stroke-width="1"/>
    <text x="250" y="355" font-family="Arial" font-size="14" text-anchor="middle" fill="#333">多头自注意力层</text>
    
    <rect x="170" y="390" width="160" height="60" rx="5" ry="5" fill="#bbdefb" stroke="#1e88e5" stroke-width="1"/>
    <text x="250" y="425" font-family="Arial" font-size="14" text-anchor="middle" fill="#333">前馈神经网络</text>
  </g>
  
  <!-- Decoder堆叠层 -->
  <g>
    <rect x="470" y="130" width="160" height="40" rx="5" ry="5" fill="#e1bee7" stroke="#8e24aa" stroke-width="1"/>
    <text x="550" y="155" font-family="Arial" font-size="12" text-anchor="middle" fill="#333">掩蔽多头自注意力层</text>
    
    <rect x="470" y="180" width="160" height="40" rx="5" ry="5" fill="#e1bee7" stroke="#8e24aa" stroke-width="1"/>
    <text x="550" y="205" font-family="Arial" font-size="12" text-anchor="middle" fill="#333">编码器-解码器注意力层</text>
    
    <rect x="470" y="230" width="160" height="40" rx="5" ry="5" fill="#e1bee7" stroke="#8e24aa" stroke-width="1"/>
    <text x="550" y="255" font-family="Arial" font-size="12" text-anchor="middle" fill="#333">前馈神经网络</text>
    
    <!-- 中间的省略号表示多层堆叠 -->
    <text x="550" y="295" font-family="Arial" font-size="24" text-anchor="middle" fill="#333">...</text>
    
    <rect x="470" y="330" width="160" height="40" rx="5" ry="5" fill="#e1bee7" stroke="#8e24aa" stroke-width="1"/>
    <text x="550" y="355" font-family="Arial" font-size="12" text-anchor="middle" fill="#333">掩蔽多头自注意力层</text>
    
    <rect x="470" y="380" width="160" height="40" rx="5" ry="5" fill="#e1bee7" stroke="#8e24aa" stroke-width="1"/>
    <text x="550" y="405" font-family="Arial" font-size="12" text-anchor="middle" fill="#333">编码器-解码器注意力层</text>
    
    <rect x="470" y="430" width="160" height="40" rx="5" ry="5" fill="#e1bee7" stroke="#8e24aa" stroke-width="1"/>
    <text x="550" y="455" font-family="Arial" font-size="12" text-anchor="middle" fill="#333">前馈神经网络</text>
  </g>
  
  <!-- 输入和输出 -->
  <rect x="150" y="530" width="200" height="40" rx="5" ry="5" fill="#dcedc8" stroke="#689f38" stroke-width="1"/>
  <text x="250" y="555" font-family="Arial" font-size="14" text-anchor="middle" fill="#333">输入嵌入 + 位置编码</text>
  
  <rect x="450" y="530" width="200" height="40" rx="5" ry="5" fill="#dcedc8" stroke="#689f38" stroke-width="1"/>
  <text x="550" y="555" font-family="Arial" font-size="14" text-anchor="middle" fill="#333">输出嵌入 + 位置编码</text>
  
  <!-- 连接线 -->
  <g stroke="#666" stroke-width="2" fill="none">
    <!-- 编码器-解码器连接 -->
    <path d="M330 230 L470 200" stroke-dasharray="5,5"/>
    <path d="M330 350 L470 400" stroke-dasharray="5,5"/>
    
    <!-- 自下而上的数据流 -->
    <line x1="250" y1="490" x2="250" y2="530" />
    <line x1="550" y1="490" x2="550" y2="530" />
  </g>
  
  <!-- 注释 -->
  <text x="400" y="580" font-family="Arial" font-size="14" text-anchor="middle" fill="#666">N×堆叠，论文中N=6</text>
</svg> 